<svg width="51" height="50" viewBox="0 0 51 50" fill="none" xmlns="http://www.w3.org/2000/svg">
<circle cx="25.5" cy="25" r="25" fill="#1D1D1B"/>
<path d="M31.0394 34.1976C29.9507 35.253 28.7619 35.0864 27.6176 34.5864C26.4067 34.0754 25.2957 34.0532 24.0181 34.5864C22.4183 35.2752 21.574 35.0752 20.6185 34.1976C15.197 28.6094 15.9969 20.0994 22.1517 19.7883C23.6515 19.8661 24.6958 20.6104 25.5734 20.6771C26.8844 20.4104 28.1398 19.6439 29.5396 19.7438C31.2172 19.8772 32.4837 20.5437 33.3169 21.7436C29.8507 23.8211 30.6728 28.3872 33.8502 29.6648C33.2169 31.3313 32.3948 32.9866 31.0283 34.2087L31.0394 34.1976ZM25.4624 19.7216C25.2957 17.2442 27.3066 15.2 29.6174 15C29.9396 17.8663 27.0177 19.9994 25.4624 19.7216Z" fill="white"/>
</svg>
