<svg width="24" height="25" viewBox="0 0 24 25" fill="none" xmlns="http://www.w3.org/2000/svg">
<path fill-rule="evenodd" clip-rule="evenodd" d="M20.1759 10.8833H3.83271C3.45311 10.8833 3.14502 10.6034 3.14502 10.2585C3.14502 9.91362 3.45311 9.63373 3.83271 9.63373H20.1759C20.5556 9.63373 20.8636 9.91362 20.8636 10.2585C20.8636 10.6034 20.5556 10.8833 20.1759 10.8833Z" fill="#363636"/>
<path fill-rule="evenodd" clip-rule="evenodd" d="M16.0815 14.1363C15.7019 14.1363 15.3901 13.8564 15.3901 13.5115C15.3901 13.1666 15.6936 12.8867 16.0732 12.8867H16.0815C16.4611 12.8867 16.7692 13.1666 16.7692 13.5115C16.7692 13.8564 16.4611 14.1363 16.0815 14.1363Z" fill="#363636"/>
<path fill-rule="evenodd" clip-rule="evenodd" d="M12.0126 14.1363C11.633 14.1363 11.3213 13.8564 11.3213 13.5115C11.3213 13.1666 11.6248 12.8867 12.0044 12.8867H12.0126C12.3923 12.8867 12.7003 13.1666 12.7003 13.5115C12.7003 13.8564 12.3923 14.1363 12.0126 14.1363Z" fill="#363636"/>
<path fill-rule="evenodd" clip-rule="evenodd" d="M7.93544 14.1363C7.55583 14.1363 7.24316 13.8564 7.24316 13.5115C7.24316 13.1666 7.54758 12.8867 7.92719 12.8867H7.93544C8.31505 12.8867 8.62313 13.1666 8.62313 13.5115C8.62313 13.8564 8.31505 14.1363 7.93544 14.1363Z" fill="#363636"/>
<path fill-rule="evenodd" clip-rule="evenodd" d="M16.0815 17.3741C15.7019 17.3741 15.3901 17.0942 15.3901 16.7493C15.3901 16.4045 15.6936 16.1246 16.0732 16.1246H16.0815C16.4611 16.1246 16.7692 16.4045 16.7692 16.7493C16.7692 17.0942 16.4611 17.3741 16.0815 17.3741Z" fill="#363636"/>
<path fill-rule="evenodd" clip-rule="evenodd" d="M12.0126 17.3741C11.633 17.3741 11.3213 17.0942 11.3213 16.7493C11.3213 16.4045 11.6248 16.1246 12.0044 16.1246H12.0126C12.3923 16.1246 12.7003 16.4045 12.7003 16.7493C12.7003 17.0942 12.3923 17.3741 12.0126 17.3741Z" fill="#363636"/>
<path fill-rule="evenodd" clip-rule="evenodd" d="M7.93544 17.3741C7.55583 17.3741 7.24316 17.0942 7.24316 16.7493C7.24316 16.4045 7.54758 16.1246 7.92719 16.1246H7.93544C8.31505 16.1246 8.62313 16.4045 8.62313 16.7493C8.62313 17.0942 8.31505 17.3741 7.93544 17.3741Z" fill="#363636"/>
<path fill-rule="evenodd" clip-rule="evenodd" d="M15.7074 7.45669C15.3278 7.45669 15.0197 7.17679 15.0197 6.83192V4.09044C15.0197 3.74556 15.3278 3.46567 15.7074 3.46567C16.087 3.46567 16.3951 3.74556 16.3951 4.09044V6.83192C16.3951 7.17679 16.087 7.45669 15.7074 7.45669Z" fill="#363636"/>
<path fill-rule="evenodd" clip-rule="evenodd" d="M8.30055 7.45669C7.92094 7.45669 7.61285 7.17679 7.61285 6.83192V4.09044C7.61285 3.74556 7.92094 3.46567 8.30055 3.46567C8.68015 3.46567 8.98824 3.74556 8.98824 4.09044V6.83192C8.98824 7.17679 8.68015 7.45669 8.30055 7.45669Z" fill="#363636"/>
<mask id="mask0_3_421" style="mask-type:luminance" maskUnits="userSpaceOnUse" x="3" y="4" width="18" height="18">
<path fill-rule="evenodd" clip-rule="evenodd" d="M3.06006 4.7811H20.9401V21.3757H3.06006V4.7811Z" fill="white"/>
</mask>
<g mask="url(#mask0_3_421)">
<path fill-rule="evenodd" clip-rule="evenodd" d="M8.12201 6.03051C5.74442 6.03051 4.43506 7.18259 4.43506 9.27431V16.8123C4.43506 18.9499 5.74442 20.1261 8.12201 20.1261H15.8773C18.2549 20.1261 19.5643 18.9715 19.5643 16.8757V9.27431C19.568 8.24552 19.2635 7.44582 18.6593 6.89602C18.0376 6.32957 17.0794 6.03051 15.8856 6.03051H8.12201ZM15.8777 21.3758H8.12239C5.00027 21.3758 3.06006 19.6272 3.06006 16.8125V9.27443C3.06006 6.50212 5.00027 4.7811 8.12239 4.7811H15.886C17.453 4.7811 18.7486 5.20761 19.6334 6.01314C20.4926 6.79702 20.9446 7.9241 20.9401 9.27609V16.8758C20.9401 19.6514 18.9998 21.3758 15.8777 21.3758Z" fill="#363636"/>
</g>
</svg>
