<svg width="24" height="25" viewBox="0 0 24 25" fill="none" xmlns="http://www.w3.org/2000/svg">
<path d="M18.438 5.37457H16.5V3.96657C16.5 3.70457 16.27 3.45457 16 3.46657C15.8681 3.46888 15.7423 3.5223 15.649 3.61558C15.5557 3.70885 15.5023 3.83469 15.5 3.96657V5.37457H8.50001V3.96657C8.50001 3.70457 8.27001 3.45457 8.00001 3.46657C7.86813 3.46888 7.74229 3.5223 7.64902 3.61558C7.55574 3.70885 7.50232 3.83469 7.50001 3.96657V5.37457H5.56201C4.89921 5.37537 4.26379 5.63901 3.79512 6.10768C3.32645 6.57635 3.06281 7.21177 3.06201 7.87457V18.8746C3.06201 20.2536 4.18401 21.3746 5.56201 21.3746H18.437C19.816 21.3746 20.937 20.2536 20.937 18.8746V7.87457C20.9365 7.21187 20.6731 6.57644 20.2045 6.10774C19.736 5.63904 19.1007 5.37537 18.438 5.37457ZM5.56201 6.37457H7.50001V6.96657C7.50001 7.22857 7.73001 7.47857 8.00001 7.46657C8.27101 7.45457 8.50001 7.24657 8.50001 6.96657V6.37457H15.5V6.96657C15.5 7.22857 15.73 7.47857 16 7.46657C16.271 7.45457 16.5 7.24657 16.5 6.96657V6.37457H18.437C19.264 6.37457 19.937 7.04757 19.937 7.87457V9.45857H4.06201V7.87457C4.06201 7.04757 4.73501 6.37457 5.56201 6.37457ZM18.438 20.3746H5.56201C4.73501 20.3746 4.06201 19.7016 4.06201 18.8746V10.4586H19.937V18.8746C19.937 19.2722 19.7791 19.6536 19.498 19.9349C19.2169 20.2162 18.8357 20.3743 18.438 20.3746Z" fill="#363636"/>
</svg>
