<svg width="24" height="24" viewBox="0 0 24 24" fill="none" xmlns="http://www.w3.org/2000/svg">
<rect x="0.6" y="0.6" width="22.8" height="22.8" rx="1.4" stroke="#363636" stroke-width="1.2"/>
<path d="M6.41083 6.41107C6.73626 6.08563 7.2639 6.08563 7.58934 6.41107L12.0001 10.8218L16.4108 6.41107C16.7363 6.08563 17.2639 6.08563 17.5893 6.41107C17.9148 6.73651 17.9148 7.26414 17.5893 7.58958L13.1786 12.0003L17.5893 16.4111C17.9148 16.7365 17.9148 17.2641 17.5893 17.5896C17.2639 17.915 16.7363 17.915 16.4108 17.5896L12.0001 13.1788L7.58934 17.5896C7.2639 17.915 6.73626 17.915 6.41083 17.5896C6.08539 17.2641 6.08539 16.7365 6.41083 16.4111L10.8216 12.0003L6.41083 7.58958C6.08539 7.26414 6.08539 6.73651 6.41083 6.41107Z" fill="#363636"/>
</svg>
