<svg width="51" height="50" viewBox="0 0 51 50" fill="none" xmlns="http://www.w3.org/2000/svg">
<circle cx="25.5" cy="25" r="24.75" fill="white" stroke="#E1E1E1" stroke-width="0.5"/>
<path d="M35.3055 23.0415H34.5V23H25.5V27H31.1515C30.327 29.3285 28.1115 31 25.5 31C22.1865 31 19.5 28.3135 19.5 25C19.5 21.6865 22.1865 19 25.5 19C27.0295 19 28.421 19.577 29.4805 20.5195L32.309 17.691C30.523 16.0265 28.134 15 25.5 15C19.9775 15 15.5 19.4775 15.5 25C15.5 30.5225 19.9775 35 25.5 35C31.0225 35 35.5 30.5225 35.5 25C35.5 24.3295 35.431 23.675 35.3055 23.0415Z" fill="#FFC107"/>
<path d="M16.6533 20.3455L19.9388 22.755C20.8278 20.554 22.9808 19 25.5003 19C27.0298 19 28.4213 19.577 29.4808 20.5195L32.3093 17.691C30.5233 16.0265 28.1343 15 25.5003 15C21.6593 15 18.3283 17.1685 16.6533 20.3455Z" fill="#FF3D00"/>
<path d="M25.5002 35.0003C28.0832 35.0003 30.4302 34.0118 32.2047 32.4043L29.1097 29.7853C28.0719 30.5745 26.8039 31.0014 25.5002 31.0003C22.8992 31.0003 20.6907 29.3418 19.8587 27.0273L16.5977 29.5398C18.2527 32.7783 21.6137 35.0003 25.5002 35.0003Z" fill="#4CAF50"/>
<path d="M35.3055 23.0415H34.5V23H25.5V27H31.1515C30.7571 28.1082 30.0467 29.0766 29.108 29.7855L29.1095 29.7845L32.2045 32.4035C31.9855 32.6025 35.5 30 35.5 25C35.5 24.3295 35.431 23.675 35.3055 23.0415Z" fill="#1976D2"/>
</svg>
