<svg width="115" height="42" viewBox="0 0 115 42" fill="none" xmlns="http://www.w3.org/2000/svg">
<path d="M24.9893 41.9918L24.5765 40.9471L20.9031 30.584L16.6483 41.0397L16.3618 41.9918H12.3261L11.9302 40.9639L0 10.8184H4.72657L14.2977 35.1505L18.6956 24.2819L13.9438 10.8184H18.6451L27.0872 34.7377L36.6414 10.8184H41.3259L29.2862 41.065L28.9744 41.9918H24.9893Z" fill="url(#paint0_linear_1174_2537)"/>
<path d="M48.1253 41.9913C41.7895 41.9913 37.3662 37.3406 37.3662 30.6846C37.3662 24.0287 41.8906 19.3779 48.1253 19.3779C54.3599 19.3779 58.7327 24.1382 58.7327 30.6846C58.7327 37.231 54.4695 41.9913 48.1253 41.9913ZM48.1253 23.7085C44.4518 23.7085 41.781 26.6405 41.781 30.6762C41.781 34.7119 44.3339 37.6102 48.1253 37.6102C51.9166 37.6102 54.2841 34.8888 54.2841 30.6762C54.2841 26.4636 51.7481 23.7085 48.1253 23.7085Z" fill="url(#paint1_linear_1174_2537)"/>
<path d="M76.8215 41.9918V31.1569C76.8215 28.4861 76.1053 24.0039 71.2861 24.0039C68.0002 24.0039 66.1214 26.8011 66.1214 31.6793V41.9918H61.6729V20.0356H66.1214V22.2346C67.6042 20.617 69.6516 19.707 71.9517 19.707C77.7904 19.707 81.27 23.9871 81.27 31.1654V42.0002H76.8215V41.9918Z" fill="url(#paint2_linear_1174_2537)"/>
<path d="M86.0639 41.9918V15.0141H76.7793V10.8184H99.8392V15.0141H90.5125V41.9918H86.0639Z" fill="url(#paint3_linear_1174_2537)"/>
<path fill-rule="evenodd" clip-rule="evenodd" d="M112.288 2.10301L103.908 7.60042V9.34404L104.759 8.33496C104.947 8.11229 105.33 8.06616 105.59 8.23487L107.069 9.19453L112.288 2.10301ZM113.558 0.219703C114.054 -0.105555 114.736 0.370561 114.41 0.814003L107.68 9.96041C107.502 10.2018 107.101 10.2604 106.83 10.0846L105.327 9.10956L103.943 10.7499C103.626 11.1257 102.898 10.9446 102.898 10.49V7.43233C102.898 7.29327 102.976 7.16161 103.11 7.07392L113.558 0.219703Z" fill="url(#paint4_linear_1174_2537)"/>
<path fill-rule="evenodd" clip-rule="evenodd" d="M111.177 1.92066L101.625 5.51975L103.606 6.9221L111.177 1.92066ZM104.38 7.4636L107.3 9.48795L112.286 2.24097L104.38 7.4636ZM114.194 0.783799C114.194 0.783966 114.193 0.784132 114.193 0.784297L114.194 0.783799ZM113.767 0.0452995C114.27 -0.144004 114.778 0.296722 114.509 0.688056L107.921 10.2625C107.745 10.5189 107.321 10.5793 107.047 10.3873L106.981 10.3412L106.979 10.34L103.262 7.76244L100.456 5.7758C100.145 5.55599 100.217 5.15107 100.591 5.01007L113.767 0.0452995Z" fill="url(#paint5_linear_1174_2537)"/>
<defs>
<linearGradient id="paint0_linear_1174_2537" x1="11.7954" y1="10.9533" x2="27.3821" y2="40.0204" gradientUnits="userSpaceOnUse">
<stop stop-color="#4EC3F9"/>
<stop offset="0.779514" stop-color="#50D4E5"/>
</linearGradient>
<linearGradient id="paint1_linear_1174_2537" x1="40.0201" y1="21.9055" x2="53.0792" y2="39.5985" gradientUnits="userSpaceOnUse">
<stop stop-color="#4EC3F9"/>
<stop offset="0.748264" stop-color="#50D4E5"/>
</linearGradient>
<linearGradient id="paint2_linear_1174_2537" x1="64.032" y1="16.0082" x2="80.8825" y2="42.1265" gradientUnits="userSpaceOnUse">
<stop stop-color="#4EC3F9"/>
<stop offset="0.685764" stop-color="#50D4E5"/>
</linearGradient>
<linearGradient id="paint3_linear_1174_2537" x1="82.5675" y1="10.9533" x2="96.048" y2="42.1267" gradientUnits="userSpaceOnUse">
<stop stop-color="#4EC3F9"/>
<stop offset="0.706597" stop-color="#50D4E5"/>
</linearGradient>
<linearGradient id="paint4_linear_1174_2537" x1="108.697" y1="0.112305" x2="108.697" y2="10.9527" gradientUnits="userSpaceOnUse">
<stop stop-color="#4EC3F9"/>
<stop offset="0.753472" stop-color="#50D4E5"/>
</linearGradient>
<linearGradient id="paint5_linear_1174_2537" x1="107.422" y1="0" x2="107.422" y2="10.5002" gradientUnits="userSpaceOnUse">
<stop stop-color="#4EC3F9"/>
<stop offset="0.753472" stop-color="#50D4E5"/>
</linearGradient>
</defs>
</svg>
