<svg width="22" height="21" viewBox="0 0 22 21" fill="none" xmlns="http://www.w3.org/2000/svg">
<path d="M14.72 12.3319C13.825 12.8536 13.0834 13.6021 12.57 14.5019L10.3 10.1319L6.41 14.0019L6.75 16.5019L5.7 17.5619L3.93 14.3719L0.75 12.6119L1.81 11.5519L4.29 11.9019L8.18 8.00188L0.75 4.12188L2.16 2.71188L11.36 4.83188L15.25 0.941885C15.3886 0.801594 15.5536 0.69021 15.7356 0.614189C15.9176 0.538169 16.1128 0.499023 16.31 0.499023C16.5072 0.499023 16.7024 0.538169 16.8844 0.614189C17.0664 0.69021 17.2314 0.801594 17.37 0.941885C17.95 1.53188 17.95 2.50188 17.37 3.06188L13.48 6.95188L14.72 12.3319ZM20.09 14.3419L16.5 17.9319L14.91 16.3419L13.75 17.5019L16.5 20.5019L21.25 15.7519L20.09 14.3419Z" fill="#111349"/>
</svg>
