<svg width="20" height="21" viewBox="0 0 20 21" fill="none" xmlns="http://www.w3.org/2000/svg">
<path d="M11 9.5C11 8.96957 10.7893 8.46086 10.4142 8.08579C10.0391 7.71071 9.53043 7.5 9 7.5C8.46957 7.5 7.96086 7.71071 7.58579 8.08579C7.21071 8.46086 7 8.96957 7 9.5C7 10.0304 7.21071 10.5391 7.58579 10.9142C7.96086 11.2893 8.46957 11.5 9 11.5C9.53043 11.5 10.0391 11.2893 10.4142 10.9142C10.7893 10.5391 11 10.0304 11 9.5Z" fill="#D0CFD7"/>
<path fill-rule="evenodd" clip-rule="evenodd" d="M10 18.5C7.87827 18.5 5.84344 17.6571 4.34315 16.1569C2.84285 14.6566 2 12.6217 2 10.5C2 8.37827 2.84285 6.34344 4.34315 4.84315C5.84344 3.34285 7.87827 2.5 10 2.5C12.1217 2.5 14.1566 3.34285 15.6569 4.84315C17.1571 6.34344 18 8.37827 18 10.5C18 12.6217 17.1571 14.6566 15.6569 16.1569C14.1566 17.6571 12.1217 18.5 10 18.5ZM9 5.5C9.70534 5.4999 10.3982 5.68631 11.0082 6.04032C11.6183 6.39434 12.1239 6.90338 12.4738 7.51582C12.8236 8.12826 13.0054 8.82232 13.0005 9.52764C12.9956 10.233 12.8043 10.9245 12.446 11.532L14.707 13.792C14.8946 13.9795 15.0001 14.2339 15.0002 14.4991C15.0002 14.6305 14.9744 14.7606 14.9242 14.8819C14.874 15.0033 14.8003 15.1136 14.7075 15.2065C14.6147 15.2994 14.5044 15.3731 14.3831 15.4234C14.2618 15.4737 14.1317 15.4997 14.0004 15.4997C13.7351 15.4998 13.4806 15.3945 13.293 15.207L11.032 12.946C10.5022 13.2583 9.90743 13.4442 9.29406 13.4892C8.68069 13.5343 8.06518 13.4373 7.49539 13.2058C6.92559 12.9743 6.41685 12.6146 6.0087 12.1545C5.60056 11.6944 5.304 11.1464 5.14208 10.5531C4.98016 9.95975 4.95724 9.33708 5.07511 8.73345C5.19297 8.12982 5.44844 7.5615 5.82166 7.07266C6.19487 6.58382 6.67579 6.18763 7.22703 5.91487C7.77826 5.64212 8.38497 5.50015 9 5.5Z" fill="#D0CFD7"/>
</svg>
